<mxfile host="app.diagrams.net" agent="Mozilla/5.0 (Windows NT 10.0; Win64; x64) AppleWebKit/537.36 (KHTML, like Gecko) Chrome/128.0.0.0 Safari/537.36" version="24.7.14">
  <diagram name="Página-1" id="pKyGj9Y5aV9NePeBulWV">
    <mxGraphModel dx="1050" dy="565" grid="1" gridSize="10" guides="1" tooltips="1" connect="1" arrows="1" fold="1" page="1" pageScale="1" pageWidth="827" pageHeight="1169" math="0" shadow="0">
      <root>
        <mxCell id="0" />
        <mxCell id="1" parent="0" />
        <mxCell id="zRO1pv5sDgUQr7V67fAo-1" value="&lt;font style=&quot;vertical-align: inherit;&quot;&gt;&lt;font style=&quot;vertical-align: inherit;&quot;&gt;Administrador&lt;/font&gt;&lt;/font&gt;&lt;div&gt;&lt;font style=&quot;vertical-align: inherit;&quot;&gt;&lt;font style=&quot;vertical-align: inherit;&quot;&gt;&lt;br&gt;&lt;/font&gt;&lt;/font&gt;&lt;/div&gt;" style="shape=umlActor;verticalLabelPosition=bottom;verticalAlign=top;html=1;outlineConnect=0;" parent="1" vertex="1">
          <mxGeometry x="30" y="80" width="90" height="150" as="geometry" />
        </mxCell>
        <mxCell id="zRO1pv5sDgUQr7V67fAo-4" value="&lt;div&gt;&lt;font style=&quot;vertical-align: inherit;&quot;&gt;&lt;font style=&quot;vertical-align: inherit;&quot;&gt;&lt;br&gt;&lt;/font&gt;&lt;/font&gt;&lt;/div&gt;&lt;font style=&quot;vertical-align: inherit;&quot;&gt;&lt;font style=&quot;vertical-align: inherit;&quot;&gt;Sistema de Hotel&lt;/font&gt;&lt;/font&gt;&lt;div&gt;&lt;font style=&quot;vertical-align: inherit;&quot;&gt;&lt;font style=&quot;vertical-align: inherit;&quot;&gt;&lt;br&gt;&lt;/font&gt;&lt;/font&gt;&lt;/div&gt;" style="shape=umlFrame;whiteSpace=wrap;html=1;pointerEvents=0;width=90;height=30;" parent="1" vertex="1">
          <mxGeometry x="250" y="30" width="500" height="550" as="geometry" />
        </mxCell>
        <mxCell id="zRO1pv5sDgUQr7V67fAo-7" value="&lt;font style=&quot;vertical-align: inherit;&quot;&gt;&lt;font style=&quot;vertical-align: inherit;&quot;&gt;Gestionar habitación&lt;/font&gt;&lt;/font&gt;&lt;div&gt;&lt;font style=&quot;vertical-align: inherit;&quot;&gt;&lt;font style=&quot;vertical-align: inherit;&quot;&gt;Agregar, modificar, eliminar&lt;/font&gt;&lt;/font&gt;&lt;/div&gt;" style="ellipse;whiteSpace=wrap;html=1;" parent="1" vertex="1">
          <mxGeometry x="350" y="40" width="140" height="70" as="geometry" />
        </mxCell>
        <mxCell id="zRO1pv5sDgUQr7V67fAo-9" value="&lt;font style=&quot;vertical-align: inherit;&quot;&gt;&lt;font style=&quot;vertical-align: inherit;&quot;&gt;Gestionar reservas&lt;/font&gt;&lt;/font&gt;&lt;div&gt;&lt;font style=&quot;vertical-align: inherit;&quot;&gt;&lt;font style=&quot;vertical-align: inherit;&quot;&gt;&lt;br&gt;&lt;/font&gt;&lt;/font&gt;&lt;/div&gt;" style="ellipse;whiteSpace=wrap;html=1;" parent="1" vertex="1">
          <mxGeometry x="273" y="380" width="140" height="70" as="geometry" />
        </mxCell>
        <mxCell id="zRO1pv5sDgUQr7V67fAo-10" value="&lt;font style=&quot;vertical-align: inherit;&quot;&gt;&lt;font style=&quot;vertical-align: inherit;&quot;&gt;Registrar un pasajero&lt;/font&gt;&lt;/font&gt;&lt;div&gt;&lt;font style=&quot;vertical-align: inherit;&quot;&gt;&lt;font style=&quot;vertical-align: inherit;&quot;&gt;&lt;br&gt;&lt;/font&gt;&lt;/font&gt;&lt;/div&gt;" style="ellipse;whiteSpace=wrap;html=1;" parent="1" vertex="1">
          <mxGeometry x="350" y="130" width="140" height="70" as="geometry" />
        </mxCell>
        <mxCell id="zRO1pv5sDgUQr7V67fAo-22" value="" style="endArrow=open;endFill=1;endSize=12;html=1;rounded=0;entryX=0;entryY=0.5;entryDx=0;entryDy=0;" parent="1" source="zRO1pv5sDgUQr7V67fAo-1" target="zRO1pv5sDgUQr7V67fAo-7" edge="1">
          <mxGeometry width="160" relative="1" as="geometry">
            <mxPoint x="80" y="170" as="sourcePoint" />
            <mxPoint x="210" y="90" as="targetPoint" />
          </mxGeometry>
        </mxCell>
        <mxCell id="zRO1pv5sDgUQr7V67fAo-25" value="Pasajero&lt;div&gt;&lt;br&gt;&lt;/div&gt;" style="shape=umlActor;verticalLabelPosition=bottom;verticalAlign=top;html=1;" parent="1" vertex="1">
          <mxGeometry x="35" y="480" width="70" height="130" as="geometry" />
        </mxCell>
        <mxCell id="zRO1pv5sDgUQr7V67fAo-27" value="Recepcionista&lt;div&gt;&lt;br&gt;&lt;/div&gt;" style="shape=umlActor;verticalLabelPosition=bottom;verticalAlign=top;html=1;" parent="1" vertex="1">
          <mxGeometry x="35" y="290" width="80" height="130" as="geometry" />
        </mxCell>
        <mxCell id="zRO1pv5sDgUQr7V67fAo-36" value="" style="endArrow=open;endFill=1;endSize=12;html=1;rounded=0;" parent="1" target="zRO1pv5sDgUQr7V67fAo-10" edge="1">
          <mxGeometry width="160" relative="1" as="geometry">
            <mxPoint x="130" y="330" as="sourcePoint" />
            <mxPoint x="344" y="274.5" as="targetPoint" />
          </mxGeometry>
        </mxCell>
        <mxCell id="zRO1pv5sDgUQr7V67fAo-38" value="" style="endArrow=open;endFill=1;endSize=12;html=1;rounded=0;" parent="1" source="zRO1pv5sDgUQr7V67fAo-25" target="zRO1pv5sDgUQr7V67fAo-49" edge="1">
          <mxGeometry width="160" relative="1" as="geometry">
            <mxPoint x="120" y="520" as="sourcePoint" />
            <mxPoint x="280" y="520" as="targetPoint" />
          </mxGeometry>
        </mxCell>
        <mxCell id="zRO1pv5sDgUQr7V67fAo-39" value="" style="endArrow=open;endFill=1;endSize=12;html=1;rounded=0;entryX=0;entryY=0.5;entryDx=0;entryDy=0;" parent="1" target="zRO1pv5sDgUQr7V67fAo-9" edge="1">
          <mxGeometry width="160" relative="1" as="geometry">
            <mxPoint x="100" y="374.5" as="sourcePoint" />
            <mxPoint x="260" y="374.5" as="targetPoint" />
          </mxGeometry>
        </mxCell>
        <mxCell id="zRO1pv5sDgUQr7V67fAo-45" value="Cancelar reserva&lt;div&gt;&lt;br&gt;&lt;/div&gt;" style="ellipse;whiteSpace=wrap;html=1;" parent="1" vertex="1">
          <mxGeometry x="480" y="310" width="140" height="70" as="geometry" />
        </mxCell>
        <mxCell id="zRO1pv5sDgUQr7V67fAo-49" value="Consultar disponibilidad" style="ellipse;whiteSpace=wrap;html=1;" parent="1" vertex="1">
          <mxGeometry x="380" y="490" width="140" height="70" as="geometry" />
        </mxCell>
        <mxCell id="zRO1pv5sDgUQr7V67fAo-50" value="" style="endArrow=block;dashed=1;endFill=0;endSize=12;html=1;rounded=0;exitX=0.27;exitY=0.963;exitDx=0;exitDy=0;entryX=0;entryY=0.5;entryDx=0;entryDy=0;exitPerimeter=0;" parent="1" source="zRO1pv5sDgUQr7V67fAo-9" target="zRO1pv5sDgUQr7V67fAo-49" edge="1">
          <mxGeometry width="160" relative="1" as="geometry">
            <mxPoint x="360" y="330" as="sourcePoint" />
            <mxPoint x="520" y="330" as="targetPoint" />
          </mxGeometry>
        </mxCell>
        <mxCell id="zRO1pv5sDgUQr7V67fAo-51" value="" style="endArrow=block;dashed=1;endFill=0;endSize=12;html=1;rounded=0;entryX=0;entryY=0.5;entryDx=0;entryDy=0;" parent="1" target="zRO1pv5sDgUQr7V67fAo-45" edge="1">
          <mxGeometry width="160" relative="1" as="geometry">
            <mxPoint x="414" y="414.5" as="sourcePoint" />
            <mxPoint x="574" y="414.5" as="targetPoint" />
          </mxGeometry>
        </mxCell>
        <mxCell id="zRO1pv5sDgUQr7V67fAo-52" value="Realizar cobro" style="ellipse;whiteSpace=wrap;html=1;" parent="1" vertex="1">
          <mxGeometry x="480" y="410" width="140" height="70" as="geometry" />
        </mxCell>
        <mxCell id="zRO1pv5sDgUQr7V67fAo-53" value="" style="endArrow=block;dashed=1;endFill=0;endSize=12;html=1;rounded=0;entryX=0.057;entryY=0.346;entryDx=0;entryDy=0;entryPerimeter=0;exitX=0.956;exitY=0.746;exitDx=0;exitDy=0;exitPerimeter=0;" parent="1" source="zRO1pv5sDgUQr7V67fAo-9" target="zRO1pv5sDgUQr7V67fAo-52" edge="1">
          <mxGeometry width="160" relative="1" as="geometry">
            <mxPoint x="360" y="450" as="sourcePoint" />
            <mxPoint x="520" y="450" as="targetPoint" />
          </mxGeometry>
        </mxCell>
        <mxCell id="zRO1pv5sDgUQr7V67fAo-54" value="Hacer reserva" style="ellipse;whiteSpace=wrap;html=1;" parent="1" vertex="1">
          <mxGeometry x="440" y="220" width="140" height="70" as="geometry" />
        </mxCell>
        <mxCell id="zRO1pv5sDgUQr7V67fAo-55" value="" style="endArrow=block;dashed=1;endFill=0;endSize=12;html=1;rounded=0;exitX=0.299;exitY=0.049;exitDx=0;exitDy=0;exitPerimeter=0;" parent="1" source="zRO1pv5sDgUQr7V67fAo-9" target="zRO1pv5sDgUQr7V67fAo-54" edge="1">
          <mxGeometry width="160" relative="1" as="geometry">
            <mxPoint x="310" y="320" as="sourcePoint" />
            <mxPoint x="470" y="320" as="targetPoint" />
          </mxGeometry>
        </mxCell>
        <mxCell id="zRO1pv5sDgUQr7V67fAo-56" value="Sistema de cobro&lt;div&gt;&lt;br&gt;&lt;/div&gt;" style="shape=umlActor;verticalLabelPosition=bottom;verticalAlign=top;html=1;" parent="1" vertex="1">
          <mxGeometry x="780" y="450" width="30" height="60" as="geometry" />
        </mxCell>
        <mxCell id="zRO1pv5sDgUQr7V67fAo-57" value="Use" style="endArrow=open;endSize=12;dashed=1;html=1;rounded=0;exitX=0.923;exitY=0.751;exitDx=0;exitDy=0;exitPerimeter=0;" parent="1" source="zRO1pv5sDgUQr7V67fAo-52" target="zRO1pv5sDgUQr7V67fAo-56" edge="1">
          <mxGeometry width="160" relative="1" as="geometry">
            <mxPoint x="610" y="514.5" as="sourcePoint" />
            <mxPoint x="770" y="514.5" as="targetPoint" />
          </mxGeometry>
        </mxCell>
        <mxCell id="uFZOX_1D9yaxNosBpMYA-1" value="" style="endArrow=open;endFill=1;endSize=12;html=1;rounded=0;entryX=0;entryY=0;entryDx=0;entryDy=0;" edge="1" parent="1" target="zRO1pv5sDgUQr7V67fAo-9">
          <mxGeometry width="160" relative="1" as="geometry">
            <mxPoint x="120" y="140" as="sourcePoint" />
            <mxPoint x="280" y="140" as="targetPoint" />
          </mxGeometry>
        </mxCell>
        <mxCell id="uFZOX_1D9yaxNosBpMYA-2" value="" style="endArrow=open;endFill=1;endSize=12;html=1;rounded=0;" edge="1" parent="1" target="zRO1pv5sDgUQr7V67fAo-10">
          <mxGeometry width="160" relative="1" as="geometry">
            <mxPoint x="120" y="140" as="sourcePoint" />
            <mxPoint x="280" y="140" as="targetPoint" />
          </mxGeometry>
        </mxCell>
      </root>
    </mxGraphModel>
  </diagram>
</mxfile>
